PathFileType	4	(X/Y/Z)	\\Move.snu.ac.kr\motion\Animal\091204_091205_Bird\091205_bird\Project 2\Capture day 2\Session 1\pigeon_029.trc
DataRate	CameraRate	NumFrames	NumMarkers	Units	OrigDataRate	OrigDataStartFrame	OrigNumFrames
240.0	240.0	21	14	mm	240.0	174	3339
Frame#	Time	14MarkersBird:Head			14MarkersBird:C_back			14MarkersBird:Spine			14MarkersBird:L-shoulder			14MarkersBird:L-elbow			14MarkersBird:L-wrist			14MarkersBird:L-hand			14MarkersBird:R-shoulder			14MarkersBird:R-elbow			14MarkersBird:R-Wrist			14MarkersBird:R-hand			14MarkersBird:C_Tail			14MarkersBird:L-Tale			14MarkersBird:R-Tale			
		X1	Y1	Z1	X2	Y2	Z2	X3	Y3	Z3	X4	Y4	Z4	X5	Y5	Z5	X6	Y6	Z6	X7	Y7	Z7	X8	Y8	Z8	X9	Y9	Z9	X10	Y10	Z10	X11	Y11	Z11	X12	Y12	Z12	X13	Y13	Z13	X14	Y14	Z14	

2609	10.867	-1098.56006	1716.76062	-1421.73682	-1034.58093	1718.90210	-1427.61401	-981.00507	1711.41760	-1441.18726	-1057.79358	1713.03638	-1403.39636	-1032.45544	1721.44153	-1387.46838	-1044.22852	1713.83008	-1345.23779	-1037.56738	1724.23218	-1318.14185	-1068.68884	1712.66077	-1450.49390	-1050.77466	1730.31506	-1469.50757	-1077.10339	1730.07263	-1505.05920	-1084.18530	1737.54272	-1543.15247	-871.00305	1657.92712	-1448.73425	-933.50891	1681.60974	-1355.63623	-952.19812	1685.57837	-1547.35608	
2610	10.871	-1109.70483	1713.61255	-1420.25342	-1045.68872	1715.71594	-1425.88391	-992.04572	1709.18396	-1439.84265	-1068.87415	1708.99414	-1401.61658	-1044.84546	1713.00037	-1382.85767	-1060.69031	1698.64844	-1344.13452	-1057.12866	1702.83276	-1315.37122	-1080.18787	1708.71033	-1448.99036	-1065.33435	1721.90942	-1470.89404	-1093.89783	1714.74902	-1503.21118	-1105.37219	1714.32507	-1543.31921	-883.01489	1653.10815	-1448.61169	-943.80133	1676.08508	-1355.19385	-963.23627	1680.94226	-1545.95178	
2611	10.875	-1120.90295	1710.33472	-1418.69763	-1056.76697	1712.79626	-1424.25159	-1003.24835	1707.39905	-1438.35608	-1080.22266	1704.97485	-1399.90869	-1057.64429	1704.62988	-1379.25696	-1077.94653	1684.58630	-1345.55676	-1077.91589	1682.18042	-1316.99280	-1091.65271	1704.98572	-1447.26184	-1079.95386	1713.29211	-1471.04004	-1110.36121	1699.68835	-1498.59753	-1125.08496	1691.87341	-1534.46973	-895.19666	1648.50977	-1448.91235	-953.81836	1671.16248	-1354.96411	-974.40234	1677.28589	-1544.57080	
2612	10.879	-1132.18774	1706.86804	-1417.06421	-1067.84973	1710.05652	-1422.72314	-1014.62347	1705.38806	-1436.88013	-1091.84729	1701.15808	-1398.25903	-1070.47021	1696.70410	-1376.69360	-1095.32031	1672.52002	-1349.15344	-1099.00928	1663.59534	-1322.82446	-1103.16772	1701.44275	-1445.35706	-1094.14429	1704.93018	-1469.99695	-1125.93713	1685.88770	-1491.52356	-1142.40405	1673.30798	-1515.06873	-907.47974	1644.29016	-1449.53821	-963.62860	1666.81921	-1354.88928	-985.74133	1674.58618	-1543.26160	
2613	10.883	-1143.61731	1703.17017	-1415.35645	-1079.11267	1707.40588	-1421.23340	-1026.18628	1703.00366	-1435.42383	-1103.70740	1697.62878	-1396.63879	-1082.94287	1689.56897	-1375.03528	-1112.17480	1663.18127	-1354.06006	-1119.37439	1648.42834	-1332.03845	-1114.83289	1698.02332	-1443.34558	-1107.50244	1697.34338	-1468.13416	-1140.32849	1674.34375	-1482.80078	-1157.24817	1659.76599	-1493.31116	-919.84961	1640.40088	-1450.30151	-973.41284	1662.74609	-1354.89697	-997.34558	1672.46643	-1542.02637	
2614	10.887	-1155.24097	1699.22107	-1413.58130	-1090.72546	1704.71765	-1419.72266	-1037.92981	1700.25952	-1433.95825	-1115.75977	1694.35217	-1395.00964	-1094.79541	1683.47498	-1374.00464	-1128.02856	1657.02295	-1359.00146	-1138.13477	1637.75134	-1342.96204	-1126.70483	1694.70764	-1441.34131	-1119.81396	1690.94556	-1465.97961	-1153.53027	1665.86682	-1473.69031	-1170.26367	1651.19385	-1474.26270	-932.35547	1636.60742	-1450.95032	-983.42328	1658.46582	-1354.92578	-1009.34589	1670.27246	-1540.82764	
2615	10.892	-1167.08521	1695.02661	-1411.74963	-1102.76709	1701.89355	-1418.16309	-1049.86414	1697.18372	-1432.46277	-1127.96313	1691.19019	-1393.36353	-1105.93933	1678.55042	-1373.24341	-1142.64648	1654.07385	-1362.67273	-1154.84546	1632.00378	-1353.23608	-1138.77759	1691.48279	-1439.46863	-1131.13013	1685.96619	-1463.99695	-1165.77771	1660.85474	-1465.61804	-1182.36768	1646.63867	-1460.04712	-945.09564	1632.59314	-1451.25122	-993.86731	1653.59827	-1354.93982	-1021.81897	1667.35864	-1539.59949	
2616	10.896	-1179.15503	1690.61853	-1409.88135	-1115.24048	1698.82104	-1416.54797	-1062.01917	1693.84863	-1430.92297	-1140.28040	1687.94727	-1391.73462	-1116.44238	1674.83044	-1372.44885	-1155.98376	1653.89734	-1364.22534	-1169.56238	1630.71606	-1360.52625	-1151.02393	1688.26807	-1437.73877	-1141.69348	1682.47058	-1462.42566	-1177.42151	1659.13220	-1459.66724	-1194.58569	1643.54919	-1451.42542	-958.16559	1628.10754	-1451.07947	-1004.80750	1648.10010	-1354.91431	-1034.70178	1663.40906	-1538.25208	
2617	10.900	-1191.43860	1686.03979	-1408.00354	-1128.08386	1695.37756	-1414.89380	-1074.42188	1690.31958	-1429.33447	-1152.68640	1684.46790	-1390.16138	-1126.47498	1672.30566	-1371.52161	-1168.02478	1655.73035	-1363.52942	-1182.63110	1632.55054	-1363.50562	-1163.42761	1684.96985	-1436.04871	-1151.75488	1680.39404	-1461.22205	-1188.76013	1660.03638	-1456.15930	-1207.47559	1639.95520	-1447.62109	-971.58258	1623.09692	-1450.43530	-1016.16351	1642.29639	-1354.79651	-1047.76392	1658.58789	-1536.69678	
2618	10.904	-1203.91748	1681.31311	-1406.13086	-1141.18823	1691.49585	-1413.23816	-1087.06189	1686.62683	-1427.69519	-1165.16248	1680.70715	-1388.65051	-1136.29053	1670.90369	-1370.60852	-1178.81018	1658.74658	-1361.06201	-1194.20813	1635.77271	-1362.26086	-1175.92432	1681.51978	-1434.32434	-1161.47229	1679.55212	-1460.08142	-1199.91907	1662.74536	-1454.69385	-1218.95300	1639.30750	-1448.06665	-985.23383	1617.73486	-1449.39380	-1027.81726	1636.67896	-1354.46753	-1060.67017	1653.44751	-1534.89990	
2619	10.908	-1216.54919	1676.44312	-1404.27539	-1154.43494	1687.19629	-1411.63489	-1099.86865	1682.78931	-1425.98889	-1177.64880	1676.70178	-1387.19470	-1146.20593	1670.43042	-1370.01855	-1188.56628	1662.30029	-1357.57104	-1203.97095	1638.93274	-1357.79468	-1188.34900	1677.65723	-1432.49915	-1170.96179	1679.64734	-1458.51245	-1210.84521	1666.55994	-1454.53870	-1228.19495	1639.61230	-1452.39136	-998.91296	1612.30798	-1448.02954	-1039.72534	1631.66699	-1353.73840	-1073.12854	1648.65259	-1532.91064	
2620	10.913	-1229.25757	1671.43958	-1402.45874	-1167.70544	1682.58813	-1410.11975	-1112.74304	1678.81140	-1424.20667	-1190.13281	1672.44409	-1385.81653	-1156.52991	1670.55371	-1370.05908	-1197.72998	1665.97998	-1353.83276	-1211.49255	1641.44543	-1351.34900	-1200.74731	1673.57605	-1430.39172	-1180.37830	1680.29150	-1455.97278	-1221.38293	1670.95984	-1454.93933	-1236.62927	1639.65942	-1456.90149	-1012.40375	1607.05945	-1446.38574	-1051.95105	1627.46680	-1352.40112	-1085.04407	1644.66931	-1530.83472	
2621	10.917	-1241.97681	1666.31946	-1400.69263	-1180.98914	1677.70569	-1408.70508	-1125.61865	1674.66064	-1422.37073	-1202.73889	1667.85742	-1384.51929	-1167.46619	1670.86768	-1370.89917	-1206.79871	1669.49097	-1350.56274	-1216.68628	1643.68750	-1344.21021	-1213.07410	1669.42749	-1427.93372	-1189.92151	1681.04883	-1452.07202	-1231.37061	1675.52063	-1455.16711	-1244.62500	1639.46191	-1460.78699	-1025.58545	1602.08118	-1444.49109	-1064.60901	1624.05310	-1350.32996	-1096.56970	1641.58972	-1528.77954	
2622	10.921	-1254.66650	1661.12976	-1398.97498	-1194.21826	1672.73608	-1407.32458	-1138.46997	1670.27625	-1420.52209	-1215.59851	1662.92139	-1383.20740	-1179.08191	1670.97681	-1372.51819	-1216.20007	1672.51489	-1348.31555	-1219.89575	1646.49158	-1337.70410	-1225.31897	1665.20764	-1425.22314	-1199.77246	1681.45935	-1446.74487	-1240.78943	1679.81128	-1454.51294	-1250.43359	1642.53198	-1466.02612	-1038.42786	1597.37048	-1442.34424	-1077.76953	1621.24707	-1347.55859	-1108.01831	1639.18579	-1526.82397	
2623	10.925	-1267.31079	1655.93884	-1397.31873	-1206.86682	1668.46130	-1405.79309	-1151.27258	1665.61536	-1418.69080	-1228.65845	1657.73596	-1381.76196	-1191.34924	1670.52588	-1374.72485	-1226.23584	1674.69153	-1347.30701	-1221.97156	1650.50256	-1333.00671	-1237.51257	1660.88379	-1422.40393	-1210.05029	1681.02869	-1440.31287	-1249.85242	1683.38025	-1452.45459	-1253.98730	1649.02014	-1471.49487	-1050.87781	1592.97046	-1439.88538	-1091.39209	1618.82874	-1344.27527	-1119.68823	1637.12622	-1525.00452	
2624	10.929	-1279.92590	1650.80676	-1395.74255	-1219.31763	1664.19299	-1404.21228	-1163.99170	1660.68982	-1416.88159	-1241.64929	1652.49707	-1380.20923	-1204.18872	1669.23804	-1377.19849	-1236.98669	1675.77527	-1347.29016	-1224.23865	1655.86975	-1330.70862	-1249.68787	1656.42249	-1419.62231	-1220.81628	1679.34619	-1433.35242	-1258.94580	1685.83325	-1448.92700	-1256.97729	1657.18652	-1475.39648	-1062.85437	1588.97632	-1437.04688	-1105.31836	1616.61072	-1340.74634	-1131.73730	1635.17444	-1523.31226	
2625	10.933	-1292.54712	1645.76917	-1394.25977	-1231.77344	1659.52136	-1402.66333	-1176.60486	1655.54480	-1415.09180	-1254.10010	1647.48535	-1378.65112	-1217.50513	1667.00024	-1379.54504	-1248.23132	1675.80664	-1347.62170	-1228.05847	1662.30994	-1330.54443	-1261.87781	1651.78992	-1417.02466	-1232.08704	1676.31006	-1426.46753	-1268.41809	1686.99890	-1444.43787	-1259.96948	1666.98474	-1476.70239	-1074.34839	1585.43652	-1433.83154	-1119.31946	1614.46326	-1337.22070	-1144.15002	1633.23584	-1521.68945	
2626	10.938	-1305.19580	1640.84021	-1392.85864	-1244.22302	1654.47180	-1401.14172	-1189.12048	1650.20605	-1413.32129	-1266.34668	1642.72437	-1377.30664	-1231.25281	1663.89819	-1381.35474	-1259.59009	1675.06970	-1347.55383	-1234.25964	1669.33252	-1331.63965	-1274.11523	1646.95239	-1414.75696	-1243.87427	1672.18591	-1420.15930	-1278.41711	1687.04016	-1439.85974	-1263.77637	1677.86633	-1474.88513	-1085.43005	1582.32874	-1430.34802	-1133.18591	1612.29395	-1333.87341	-1156.79675	1631.25049	-1520.04651	
2627	10.942	-1317.85889	1636.00891	-1391.48389	-1256.65247	1649.11646	-1399.62720	-1201.56677	1644.69751	-1411.57458	-1280.26245	1637.58081	-1376.65247	-1245.44751	1660.14954	-1382.28186	-1270.74988	1673.83496	-1346.54614	-1242.97717	1676.34473	-1333.00769	-1286.43274	1641.87671	-1412.96313	-1256.23279	1667.43604	-1414.80701	-1288.94189	1686.29541	-1436.05737	-1269.37854	1688.60913	-1470.28589	-1096.19910	1579.60681	-1426.78882	-1146.80554	1609.98584	-1330.79175	-1169.53442	1629.06628	-1518.32214	
2628	10.946	-1330.49670	1631.22803	-1390.06641	-1269.04834	1643.52905	-1398.10010	-1213.97192	1639.03601	-1409.84570	-1294.15381	1632.47815	-1375.74927	-1260.11377	1655.92529	-1382.03271	-1281.54065	1672.13489	-1344.40100	-1253.90881	1682.51477	-1333.78601	-1298.85181	1636.53760	-1411.74036	-1269.28149	1662.49731	-1410.68481	-1299.95740	1684.95435	-1433.63989	-1277.46667	1697.94690	-1464.25098	-1106.74316	1577.24060	-1423.37927	-1160.18213	1607.36340	-1327.98901	-1182.28308	1626.40149	-1516.53748	
2629	10.950	-1343.05896	1626.41785	-1388.56104	-1281.39722	1637.78320	-1396.54053	-1226.32886	1633.12634	-1408.07080	-1306.94385	1627.73669	-1374.15259	-1275.03638	1651.26843	-1380.39063	-1291.91614	1669.64465	-1341.14514	-1266.49011	1686.71008	-1333.18640	-1311.35913	1630.92310	-1411.02722	-1283.13391	1657.63403	-1408.00720	-1311.39624	1682.87854	-1432.92712	-1288.39722	1704.70374	-1458.77356	-1117.16931	1575.15173	-1420.30969	-1173.41858	1604.20642	-1325.41052	-1195.03284	1622.93982	-1514.76868	
